HIERARCHY
ROOT Hips
{
	OFFSET 0.000000 0.000000 0.000000
	CHANNELS 6 Xposition Yposition Zposition Zrotation Yrotation Xrotation 
	JOINT LHipJoint
	{
		OFFSET 0.000000 0.000000 0.000000
		CHANNELS 3 Zrotation Yrotation Xrotation
		JOINT LeftUpLeg
		{
			OFFSET 1.363060 -1.794630 0.839290
			CHANNELS 3 Zrotation Yrotation Xrotation
			JOINT LeftLeg
			{
				OFFSET 2.448110 -6.726130 0.000000
				CHANNELS 3 Zrotation Yrotation Xrotation
				JOINT LeftFoot
				{
					OFFSET 2.562200 -7.039590 0.000000
					CHANNELS 3 Zrotation Yrotation Xrotation
					JOINT LeftToeBase
					{
						OFFSET 0.157640 -0.433110 2.322550
						CHANNELS 3 Zrotation Yrotation Xrotation
						End Site
						{
							OFFSET 0.000000 0.000000 0.000000
						}
					}
				}
			}
		}
	}
	JOINT RHipJoint
	{
		OFFSET 0.000000 0.000000 0.000000
		CHANNELS 3 Zrotation Yrotation Xrotation
		JOINT RightUpLeg
		{
			OFFSET -1.305520 -1.794630 0.839290
			CHANNELS 3 Zrotation Yrotation Xrotation
			JOINT RightLeg
			{
				OFFSET -2.542530 -6.985550 0.000000
				CHANNELS 3 Zrotation Yrotation Xrotation
				JOINT RightFoot
				{
					OFFSET -2.568260 -7.056230 0.000000
					CHANNELS 3 Zrotation Yrotation Xrotation
					JOINT RightToeBase
					{
						OFFSET -0.164730 -0.452590 2.363150
						CHANNELS 3 Zrotation Yrotation Xrotation
						End Site
						{
							OFFSET 0.000000 0.000000 0.000000
						}
					}
				}
			}
		}
	}
	JOINT LowerBack
	{
		OFFSET 0.000000 0.000000 0.000000
		CHANNELS 3 Zrotation Yrotation Xrotation
		JOINT Spine
		{
			OFFSET 0.028270 2.035590 -0.193380
			CHANNELS 3 Zrotation Yrotation Xrotation
			JOINT Spine1
			{
				OFFSET 0.056720 2.048850 -0.042750
				CHANNELS 3 Zrotation Yrotation Xrotation
				JOINT Neck
				{
					OFFSET 0.000000 0.000000 0.000000
					CHANNELS 3 Zrotation Yrotation Xrotation
					JOINT Neck1
					{
						OFFSET -0.054170 1.746240 0.172020
						CHANNELS 3 Zrotation Yrotation Xrotation
						JOINT Head
						{
							OFFSET 0.104070 1.761360 -0.123970
							CHANNELS 3 Zrotation Yrotation Xrotation
							End Site
							{
								OFFSET 0.000000 0.000000 0.000000
							}
						}
					}
				}
				JOINT LeftShoulder
				{
					OFFSET 0.000000 0.000000 0.000000
					CHANNELS 3 Zrotation Yrotation Xrotation
					JOINT LeftArm
					{
						OFFSET 3.362410 1.200890 -0.311210
						CHANNELS 3 Zrotation Yrotation Xrotation
						JOINT LeftForeArm
						{
							OFFSET 4.983000 -0.000000 -0.000000
							CHANNELS 3 Zrotation Yrotation Xrotation
							JOINT LeftHand
							{
								OFFSET 3.483560 -0.000000 -0.000000
								CHANNELS 3 Zrotation Yrotation Xrotation
								JOINT LeftFingerBase
								{
									OFFSET 0.000000 0.000000 0.000000
									CHANNELS 3 Zrotation Yrotation Xrotation
									JOINT LeftHandIndex1
									{
										OFFSET 0.715260 -0.000000 -0.000000
										CHANNELS 3 Zrotation Yrotation Xrotation
										End Site
										{
											OFFSET 0.000000 0.000000 0.000000
										}
									}
								}
								JOINT LThumb
								{
									OFFSET 0.000000 0.000000 0.000000
									CHANNELS 3 Zrotation Yrotation Xrotation
									End Site
									{
										OFFSET 0.000000 0.000000 0.000000
									}
								}
							}
						}
					}
				}
				JOINT RightShoulder
				{
					OFFSET 0.000000 0.000000 0.000000
					CHANNELS 3 Zrotation Yrotation Xrotation
					JOINT RightArm
					{
						OFFSET -3.136600 1.374050 -0.404650
						CHANNELS 3 Zrotation Yrotation Xrotation
						JOINT RightForeArm
						{
							OFFSET -5.241900 -0.000000 -0.000000
							CHANNELS 3 Zrotation Yrotation Xrotation
							JOINT RightHand
							{
								OFFSET -3.444170 -0.000000 -0.000000
								CHANNELS 3 Zrotation Yrotation Xrotation
								JOINT RightFingerBase
								{
									OFFSET 0.000000 0.000000 0.000000
									CHANNELS 3 Zrotation Yrotation Xrotation
									JOINT RightHandIndex1
									{
										OFFSET -0.622530 -0.000000 -0.000000
										CHANNELS 3 Zrotation Yrotation Xrotation
										End Site
										{
											OFFSET 0.000000 0.000000 0.000000
										}
									}
								}
								JOINT RThumb
								{
									OFFSET 0.000000 0.000000 0.000000
									CHANNELS 3 Zrotation Yrotation Xrotation
									End Site
									{
										OFFSET 0.000000 0.000000 0.000000
									}
								}
							}
						}
					}
				}
			}
		}
	}
}
MOTION
Frames: 6
Frame Time: 0.008333
-0.726223 18.284400 6.004748 -6.737518 -1.630011 -1.118168 1.740829 3.839844 3.081451 -7.912950 -6.915823 -5.490534 1.636561 8.337096 26.889998 -0.020543 3.356343 -11.761362 8.790200 -16.670800 -55.361900 -2.253053 -3.935773 2.237342 21.927659 -0.094087 9.129366 0.585953 0.884778 1.739263 0.726025 -6.958983 -12.153690 -0.706500 5.372100 -14.972900 2.936883 1.073948 3.082950 6.825348 0.702931 16.109098 -5.269106 0.673524 -17.269989 -4.179944 -3.881067 -26.551739 6.470959 -4.981598 33.400602 1.214600 -1.362600 10.571100 1.616484 -6.808587 0.690479 -94.154553 9.098498 25.878760 23.532188 -32.819371 -5.929864 0.407332 0.019742 13.569882 3.628590 -24.000294 -1.324500 -7.125000 0.000000 0.000000 -15.982600 6.574600 14.643500 -4.603685 9.253026 3.355701 95.926472 -11.094728 23.914213 -30.635832 39.152849 -8.734085 1.091480 -3.209755 20.280912 0.092307 -36.439429 1.190500 7.125000 0.000000 0.000000 35.207800 -60.220600 -14.095800 
-0.723762 18.284990 6.001697 -6.753094 -1.609932 -1.059190 1.749469 3.826807 3.050968 -7.909178 -6.922312 -5.547332 1.637996 8.347402 26.908097 -0.019784 3.357976 -11.769648 8.801300 -16.678200 -55.400500 -2.246997 -3.929428 2.211971 21.935338 -0.095369 9.078553 0.585716 0.881301 1.738092 0.722106 -6.944052 -12.159847 -0.705900 5.370000 -14.966900 2.920775 1.074561 3.197227 6.890467 0.722223 15.801178 -5.285585 0.673140 -17.243085 -4.129590 -3.860347 -26.463524 6.403966 -4.951196 33.414201 1.196700 -1.355100 10.549100 1.576724 -6.810804 0.712403 -94.164450 9.153395 25.857228 23.523594 -32.800723 -5.924470 0.406037 0.018269 13.590671 3.581139 -23.993773 -1.305000 -7.125000 0.000000 0.000000 -16.010600 6.585900 14.667800 -4.580285 9.270458 3.385900 95.946349 -11.192592 23.758620 -30.662424 39.151354 -8.731203 1.107927 -3.204178 20.463802 0.437820 -36.240306 1.005100 7.125000 0.000000 0.000000 35.348100 -60.004700 -13.976000 
-0.722975 18.284400 5.996973 -6.772530 -1.601440 -1.023505 1.767646 3.816264 3.023703 -7.899673 -6.908511 -5.589505 1.638668 8.351821 26.915927 -0.013361 3.341554 -11.796246 8.809400 -16.683500 -55.428500 -2.230517 -3.924936 2.193415 21.943600 -0.089885 9.047233 0.585733 0.877672 1.736636 0.721792 -6.948748 -12.167421 -0.711600 5.391300 -15.028000 2.850750 1.085376 3.342056 7.067986 0.741306 15.545597 -5.322081 0.678340 -17.246200 -4.176839 -3.853722 -26.433778 6.366027 -4.917282 33.437317 1.197800 -1.347300 10.542300 1.535800 -6.806868 0.730764 -94.191461 9.174618 25.869942 23.507987 -32.781485 -5.918207 0.406239 0.015533 13.560728 3.538043 -24.056677 -1.290000 -7.125000 0.000000 0.000000 -16.036100 6.531600 14.710700 -4.577508 9.283002 3.413482 95.934233 -11.259363 23.635690 -30.691503 39.158545 -8.736481 1.114192 -3.199624 20.682942 0.653207 -36.106419 0.890500 7.125000 0.000000 0.000000 35.429300 -59.865800 -13.893800 
-0.722975 18.284498 5.992446 -6.785595 -1.588930 -1.017369 1.785016 3.811434 3.010389 -7.892949 -6.879913 -5.623992 1.642484 8.354984 26.928117 -0.000533 3.288443 -11.783755 8.811600 -16.685000 -55.436400 -2.213839 -3.923968 2.188351 21.943044 -0.093675 9.030894 0.585895 0.875512 1.735585 0.725754 -6.971472 -12.166981 -0.706800 5.373500 -14.976900 2.766560 1.089303 3.429224 7.241466 0.738278 15.441680 -5.345274 0.680072 -17.262369 -4.241373 -3.845526 -26.431205 6.380164 -4.890465 33.435070 1.213800 -1.336900 10.539400 1.511783 -6.799706 0.736973 -94.225139 9.163857 25.881987 23.499679 -32.773840 -5.916000 0.406795 0.012515 13.530828 3.498352 -24.140840 -1.277200 -7.125000 0.000000 0.000000 -16.059200 6.456600 14.757900 -4.589878 9.287690 3.426572 95.883574 -11.280457 23.646166 -30.713171 39.172126 -8.748866 1.110002 -3.198190 20.712873 0.603678 -36.128967 0.916700 7.125000 0.000000 0.000000 35.406600 -59.894700 -13.908400 
-0.722483 18.285285 5.989493 -6.785953 -1.563443 -1.016189 1.784645 3.806952 3.000696 -7.890202 -6.883735 -5.640503 1.645113 8.361243 26.942200 0.002055 3.274498 -11.766704 8.817100 -16.688600 -55.455400 -2.215520 -3.922052 2.178808 21.941039 -0.117391 9.022137 0.585571 0.874714 1.735786 0.719671 -6.946827 -12.182027 -0.682900 5.283700 -14.719500 2.768290 1.091501 3.499539 7.226411 0.751300 15.339653 -5.340529 0.682549 -17.273604 -4.213999 -3.831504 -26.409359 6.365490 -4.874930 33.439158 1.209600 -1.330000 10.531700 1.501600 -6.797439 0.744869 -94.207652 9.181118 25.935467 23.503607 -32.774598 -5.917092 0.406192 0.012148 13.534736 3.479046 -24.139489 -1.269300 -7.125000 0.000000 0.000000 -16.070500 6.459800 14.768200 -4.576917 9.291346 3.437469 95.881508 -11.317606 23.639851 -30.727718 39.183633 -8.760147 1.104654 -3.198567 20.665916 0.492156 -36.185774 0.976000 7.125000 0.000000 0.000000 35.355100 -59.959500 -13.940500 
-0.721007 18.285679 5.986245 -6.802160 -1.553046 -1.009908 1.777832 3.804296 2.994452 -7.868227 -6.891298 -5.662174 1.646936 8.369900 26.958677 -0.002169 3.291117 -11.762380 8.820100 -16.690600 -55.465900 -2.224980 -3.918626 2.168100 21.962725 -0.127774 9.010901 0.585376 0.874812 1.735948 0.718423 -6.935267 -12.168578 -0.674700 5.252500 -14.630200 2.852695 1.098977 3.563510 7.146771 0.782102 15.260821 -5.366748 0.684328 -17.289295 -4.254219 -3.850106 -26.485520 6.438330 -4.908844 33.534329 1.225300 -1.333300 10.565600 1.506546 -6.798989 0.755174 -94.174570 9.178364 26.000668 23.499533 -32.770925 -5.913759 0.404054 0.010538 13.539766 3.396841 -24.119043 -1.235100 -7.125000 0.000000 0.000000 -16.119200 6.487600 14.807800 -4.551202 9.291629 3.447646 95.921430 -11.345499 23.613002 -30.734959 39.189278 -8.766458 1.092895 -3.198287 20.646550 0.274439 -36.194059 1.090000 7.125000 0.000000 0.000000 35.152000 -60.005800 -13.887400 
